<svg xmlns="http://www.w3.org/2000/svg" viewBox="0 0 64 64" width="64" height="64">
  <!-- corruption: violet static over dead ground — the biome where code
       runs worse; edges stay base-colored so tiling is seamless -->
  <rect width="64" height="64" fill="#241335"/>
  <!-- dead patches -->
  <path d="M10 12 Q18 7 24 13 Q26 21 18 23 Q9 22 10 12 Z" fill="#1a0c28"/>
  <path d="M40 34 Q50 30 54 38 Q54 46 44 46 Q37 42 40 34 Z" fill="#1a0c28"/>
  <path d="M14 44 Q22 40 26 46 Q26 54 18 54 Q11 51 14 44 Z" fill="#1e0f2c"/>
  <!-- glitch fragments: broken machine runes -->
  <g stroke="#6d2fa0" stroke-width="1.6" stroke-linecap="square" fill="none">
    <path d="M20 30 h5 M27 30 h2"/>
    <path d="M44 18 v4 M44 25 v2"/>
    <path d="M32 50 h3 M37 50 h4"/>
    <path d="M52 44 h4 v3"/>
  </g>
  <!-- unstable motes -->
  <g fill="#b366e0">
    <circle cx="26" cy="16" r="1.4"/>
    <circle cx="48" cy="30" r="1.2"/>
    <circle cx="16" cy="36" r="1.2"/>
    <circle cx="38" cy="42" r="1.0"/>
  </g>
  <g fill="#d99cff">
    <circle cx="26.5" cy="15.5" r="0.6"/>
    <circle cx="48.5" cy="29.5" r="0.5"/>
  </g>
</svg>
