<svg xmlns="http://www.w3.org/2000/svg" viewBox="0 0 64 64" width="64" height="64">
  <!-- mud frame 2: the big bubble pops into flecks, the next swells, a
       pinprick starts. Everything except bubbles + sheen matches
       tile_mud.svg -->
  <rect width="64" height="64" fill="#4a3a26"/>
  <path d="M10 14 Q20 8 26 15 Q28 23 18 25 Q9 23 10 14 Z" fill="#382b1a"/>
  <path d="M38 36 Q50 31 54 39 Q53 47 43 47 Q36 42 38 36 Z" fill="#382b1a"/>
  <path d="M14 46 Q22 42 27 47 Q26 55 18 55 Q11 52 14 46 Z" fill="#3f311d"/>
  <path d="M34 10 Q44 6 48 13 Q47 20 38 20 Q32 16 34 10 Z" fill="#57452c"/>
  <g stroke="#7a6543" stroke-width="1.4" stroke-linecap="round" fill="none">
    <path d="M12 16.5 Q16 14.5 20 16.5"/>
    <path d="M43 40.5 Q47 38.5 51 40.5"/>
  </g>
  <!-- pop: splash flecks where the swollen bubble was -->
  <g fill="#5e4b30">
    <circle cx="20.5" cy="20" r="0.55"/>
    <circle cx="23.5" cy="20.5" r="0.5"/>
    <circle cx="22" cy="23" r="0.45"/>
  </g>
  <g fill="none" stroke="#5e4b30" stroke-width="1.2">
    <circle cx="47" cy="43" r="1.6"/>
    <circle cx="20" cy="51" r="0.7"/>
    <circle cx="35" cy="32" r="0.6"/>
  </g>
  <g fill="#5a4830">
    <circle cx="54" cy="18" r="1.2"/>
    <circle cx="30" cy="30" r="1.1"/>
    <circle cx="8" cy="34" r="1.1"/>
    <circle cx="58" cy="54" r="1.0"/>
  </g>
</svg>
