<svg xmlns="http://www.w3.org/2000/svg" viewBox="0 0 64 64" width="64" height="64">
  <!-- silver vein: bright seams in deep dark rock (docs/03: the midgame's
       fight-worthy vein, feeds Chips); edges stay base-colored so tiling
       is seamless -->
  <rect width="64" height="64" fill="#45434b"/>
  <path d="M8 10 Q18 5 24 12 Q26 20 16 22 Q7 20 8 10 Z" fill="#3c3a42"/>
  <path d="M40 40 Q52 36 56 44 Q54 52 44 52 Q38 46 40 40 Z" fill="#3c3a42"/>
  <path d="M34 8 Q44 4 48 11 Q47 18 38 18 Q32 14 34 8 Z" fill="#4e4c55"/>
  <g stroke="#2e2c33" stroke-width="1.4" stroke-linecap="round" fill="none">
    <path d="M14 30 L20 36 L18 42"/>
    <path d="M50 16 L46 24"/>
  </g>
  <!-- silver seams -->
  <g stroke="#d5dae4" stroke-width="2" stroke-linecap="round" fill="none">
    <path d="M12 40 L20 34 L28 38"/>
    <path d="M40 18 L48 22 L55 17"/>
  </g>
  <!-- nuggets with white fire -->
  <g fill="#e4e8f0">
    <circle cx="20" cy="34" r="1.7"/>
    <circle cx="48" cy="22" r="1.6"/>
    <circle cx="28" cy="38" r="1.3"/>
  </g>
  <g fill="#ffffff">
    <circle cx="20.5" cy="33.5" r="0.6"/>
    <circle cx="48.5" cy="21.5" r="0.6"/>
  </g>
</svg>
