<svg xmlns="http://www.w3.org/2000/svg" viewBox="0 0 64 64" width="64" height="64">
  <!-- corruption frame 1: the runes jump like static, motes phase in and
       out. Ground patches match tile_corruption.svg exactly -->
  <rect width="64" height="64" fill="#241335"/>
  <path d="M10 12 Q18 7 24 13 Q26 21 18 23 Q9 22 10 12 Z" fill="#1a0c28"/>
  <path d="M40 34 Q50 30 54 38 Q54 46 44 46 Q37 42 40 34 Z" fill="#1a0c28"/>
  <path d="M14 44 Q22 40 26 46 Q26 54 18 54 Q11 51 14 44 Z" fill="#1e0f2c"/>
  <g stroke="#6d2fa0" stroke-width="1.6" stroke-linecap="square" fill="none">
    <path d="M22 30 h7"/>
    <path d="M44 16 v3 M44 22 v5"/>
    <path d="M30 50 h2 M35 50 h6"/>
    <path d="M52 42 v5 h4"/>
  </g>
  <g fill="#b366e0">
    <circle cx="54" cy="12" r="1.3"/>
    <circle cx="48" cy="30" r="1.5"/>
    <circle cx="15" cy="37" r="1.0"/>
    <circle cx="38" cy="42" r="1.3"/>
  </g>
  <g fill="#d99cff">
    <circle cx="48.5" cy="29.5" r="0.6"/>
    <circle cx="54.5" cy="11.5" r="0.5"/>
  </g>
</svg>
