<svg xmlns="http://www.w3.org/2000/svg" viewBox="0 0 64 64" width="64" height="64">
  <!-- crystal frame 1: the north spire catches the light (tip pinpoint,
       brighter lit face), specks swell. Ground matches tile_crystal.svg -->
  <rect width="64" height="64" fill="#4d4966"/>
  <path d="M8 42 Q18 36 24 44 Q26 52 16 54 Q7 52 8 42 Z" fill="#443f5c"/>
  <path d="M36 6 Q46 2 50 10 Q50 18 40 18 Q34 12 36 6 Z" fill="#45405e"/>
  <ellipse cx="19" cy="27" rx="8" ry="2" fill="#3a3550"/>
  <path d="M18 12 L13 26 L18 26 Z" fill="#dbf6fd"/>
  <path d="M18 12 L18 26 L24 26 Z" fill="#7fb6cf"/>
  <path d="M25 18 L22 27 L26 27 Z" fill="#8fc0d6"/>
  <path d="M25 18 L26 27 L29 26 Z" fill="#6fa3bd"/>
  <ellipse cx="45" cy="50" rx="9" ry="2.2" fill="#3a3550"/>
  <path d="M44 32 L38 49 L44 49 Z" fill="#b9ecf7"/>
  <path d="M44 32 L44 49 L51 49 Z" fill="#7fb6cf"/>
  <path d="M52 40 L49 50 L53 50 Z" fill="#a5dbec"/>
  <path d="M52 40 L53 50 L56 49 Z" fill="#6fa3bd"/>
  <circle cx="18" cy="11.5" r="0.6" fill="#ffffff"/>
  <g fill="#a8e2f0">
    <circle cx="32" cy="38" r="1.4"/>
    <circle cx="12" cy="16" r="0.7"/>
    <circle cx="55" cy="20" r="1.1"/>
    <circle cx="28" cy="58" r="0.9"/>
  </g>
</svg>
