<svg xmlns="http://www.w3.org/2000/svg" viewBox="0 0 64 64" width="64" height="64">
  <!-- scree overlay for a grass tile's NORTH edge where a mountain looms:
       a soft contact-shadow band right at the block's base, then tumbled
       stones spilling onto the meadow. Transparent elsewhere; matched
       endpoints so the band runs seamlessly along a range -->
  <path d="M0 0 H64 V4 Q50 8 36 5 Q20 2 8 6 Q3 8 0 4 Z" fill="#3a3e47" opacity="0.45"/>
  <g fill="#6a6e78">
    <ellipse cx="10" cy="8" rx="2.6" ry="1.8"/>
    <ellipse cx="30" cy="10" rx="2.0" ry="1.4"/>
    <ellipse cx="50" cy="7" rx="2.4" ry="1.7"/>
    <ellipse cx="4" cy="6" rx="1.9" ry="1.3"/>
    <ellipse cx="24" cy="7.5" rx="1.8" ry="1.3"/>
    <ellipse cx="37" cy="6" rx="2.2" ry="1.5"/>
    <ellipse cx="55" cy="12" rx="1.7" ry="1.2"/>
    <ellipse cx="17" cy="9" rx="1.5" ry="1.1"/>
  </g>
  <g fill="#7d818c">
    <ellipse cx="20" cy="6.5" rx="1.6" ry="1.1"/>
    <ellipse cx="41" cy="7.5" rx="1.5" ry="1.0"/>
    <ellipse cx="58" cy="10" rx="1.4" ry="1.0"/>
    <ellipse cx="7" cy="12" rx="1.4" ry="1.0"/>
    <ellipse cx="27" cy="12.5" rx="1.3" ry="0.9"/>
    <ellipse cx="34" cy="9" rx="1.2" ry="0.9"/>
    <ellipse cx="47" cy="10.5" rx="1.5" ry="1.0"/>
    <ellipse cx="62" cy="7" rx="1.3" ry="0.9"/>
    <ellipse cx="13" cy="6" rx="1.2" ry="0.8"/>
  </g>
  <g fill="#4a4e57">
    <circle cx="15" cy="11" r="1.0"/>
    <circle cx="45" cy="12" r="1.1"/>
    <circle cx="60" cy="6" r="0.9"/>
    <circle cx="5" cy="10" r="0.9"/>
    <circle cx="22" cy="10.5" r="0.8"/>
    <circle cx="32" cy="13" r="0.9"/>
    <circle cx="39" cy="11" r="0.8"/>
    <circle cx="52" cy="13.5" r="0.9"/>
    <circle cx="9" cy="14" r="0.8"/>
    <circle cx="28" cy="5" r="0.7"/>
    <circle cx="43" cy="6" r="0.7"/>
    <circle cx="57" cy="14" r="0.7"/>
    <circle cx="19" cy="13.5" r="0.7"/>
    <circle cx="63" cy="12" r="0.8"/>
  </g>
</svg>
