<svg xmlns="http://www.w3.org/2000/svg" viewBox="0 0 64 64" width="64" height="64">
  <!-- water flow frame 1: ripple crests drifted south, sparkles moved;
       depth patches stay put (only the surface moves) -->
  <rect width="64" height="64" fill="#1a478c"/>
  <path d="M8 40 Q20 34 30 40 Q34 48 24 52 Q10 52 8 40 Z" fill="#153b78"/>
  <path d="M38 10 Q50 6 54 14 Q54 22 44 22 Q36 18 38 10 Z" fill="#173f80"/>
  <g stroke="#2f6ab5" stroke-width="2" stroke-linecap="round" fill="none">
    <path d="M10 23 Q16 19 22 23 Q28 27 34 23"/>
    <path d="M30 37 Q36 33 42 37 Q48 41 54 37"/>
    <path d="M14 12 Q20 8 26 12"/>
  </g>
  <g stroke="#4d87cc" stroke-width="1.4" stroke-linecap="round">
    <path d="M40 48 L44 48"/>
    <path d="M24 30 L27 30"/>
    <path d="M46 18 L49 18"/>
  </g>
</svg>
