<svg xmlns="http://www.w3.org/2000/svg" viewBox="0 0 64 64" width="64" height="64">
  <!-- corruption frame 2: another static arrangement — runes fragment
       differently, a mote flares elsewhere. Ground patches match
       tile_corruption.svg exactly -->
  <rect width="64" height="64" fill="#241335"/>
  <path d="M10 12 Q18 7 24 13 Q26 21 18 23 Q9 22 10 12 Z" fill="#1a0c28"/>
  <path d="M40 34 Q50 30 54 38 Q54 46 44 46 Q37 42 40 34 Z" fill="#1a0c28"/>
  <path d="M14 44 Q22 40 26 46 Q26 54 18 54 Q11 51 14 44 Z" fill="#1e0f2c"/>
  <g stroke="#6d2fa0" stroke-width="1.6" stroke-linecap="square" fill="none">
    <path d="M20 30 h2 M25 30 h5"/>
    <path d="M44 20 v6"/>
    <path d="M32 50 h9"/>
    <path d="M50 44 h6"/>
  </g>
  <g fill="#b366e0">
    <circle cx="26" cy="16" r="1.6"/>
    <circle cx="16" cy="36" r="1.4"/>
    <circle cx="38" cy="42" r="0.8"/>
    <circle cx="10" cy="22" r="1.1"/>
  </g>
  <g fill="#d99cff">
    <circle cx="26.5" cy="15.5" r="0.7"/>
    <circle cx="10.4" cy="21.6" r="0.5"/>
  </g>
</svg>
